<?xml version="1.0" encoding="utf-8"?>
<!-- Generator: Adobe Illustrator 22.0.1, SVG Export Plug-In . SVG Version: 6.00 Build 0)  -->
<svg version="1.1" id="Layer_1" xmlns="http://www.w3.org/2000/svg" xmlns:xlink="http://www.w3.org/1999/xlink" x="0px" y="0px"
	 viewBox="0 0 1080 1080" style="enable-background:new 0 0 1080 1080;" xml:space="preserve">
<style type="text/css">
	.st0{fill:none;stroke:#000000;stroke-width:17;stroke-miterlimit:10;}
	.st1{fill:none;stroke:#000000;stroke-width:17;stroke-linecap:round;stroke-linejoin:round;stroke-miterlimit:10;}
	.st2{fill:none;stroke:#000000;stroke-width:17;stroke-linecap:square;stroke-miterlimit:10;}
</style>
<path class="st0" d="M840.1,958.6C755.6,1019.3,652,1055,540,1055c-31.8,0-63-2.9-93.2-8.4c10.8-25.6,19.2-53.7,24.6-84.4
	c2.5-14.3,2-28.8,4.3-43C505.3,735.7,535.2,700,535.2,700c0,81,79,114.6,158.7,116c86.8,50.4,93.9,105.2,135.8,135.7
	C833.1,954.2,836.6,956.5,840.1,958.6z"/>
<path class="st0" d="M950.5,844.9c0,19.2-11.6,34.8-25.9,34.8c-13,0-23.7-12.8-25.6-29.5c-0.2-1.7-0.3-3.5-0.3-5.2
	c0-19.2,11.6-34.8,25.9-34.8c0.6,0,1.2,0,1.7,0.1C939.9,811.3,950.5,826.4,950.5,844.9z"/>
<path class="st0" d="M25.4,560.7c-0.3-6.9-0.4-13.8-0.4-20.7C25,255.6,255.6,25,540,25s515,230.6,515,515
	c0,82.2-19.3,159.9-53.5,228.8c-15-32.7-36-73.7-61.9-129.2c-57.8-123.7-87.8-191.2-122.7-235.4c0.1-5.8,0-70-36.2-103.1
	c13-25.3,18.5-42.5,23.7-58.4c13.6-41.5-11.2-23.3-26.9-7.6c-7.6,7.6-38.1,26.3-68,43.9c-0.8-0.1-1.6-0.1-2.4-0.2
	c2.9-13.2,4.3-25.4,4.6-36.9c0.5-17.5-0.8-77.2-25.4-26.3c-5.8,11.9-25.7,21.4-47.6,37.8"/>
<path class="st0" d="M709.5,278.9c-0.9,0.5-1.9,1.1-2.8,1.6c0.1-0.6,0.3-1.2,0.4-1.8C707.9,278.7,708.7,278.8,709.5,278.9z"/>
<path class="st0" d="M926.4,810.1c-0.6-0.1-1.2-0.1-1.7-0.1c-14.3,0-25.9,15.6-25.9,34.8c0,1.8,0.1,3.5,0.3,5.2
	c1.9,16.7,12.6,29.5,25.6,29.5c14.3,0,25.9-15.5,25.9-34.8C950.5,826.4,939.9,811.3,926.4,810.1z"/>
<path class="st0" d="M1001.5,769.8c-15-32.6-36-73.5-61.9-128.7c-57.8-123.3-87.8-190.5-122.7-234.6c0,0.3,0,0.4,0,0.4
	c-30.2-33.4-80.1-57.6-128.5-71.9c-4.9,10.5-10.6,21.5-17.4,33c-26.6,45.5-117.9,73.6-95-18.6c2.8-11.3,6.4-21.5,10.6-30.6
	c-143.4-0.1-234.9,66.8-319.8,155.5c-2.3,2.4-138.4,135.7-220,215.6c55.1,182.3,209.2,321.8,400,356.6
	c10.8-25.5,19.2-53.5,24.6-84.1c2.5-14.2,2-28.7,4.3-42.9c29.6-182.8,59.6-218.3,59.6-218.3c0,80.7,79,114.2,158.7,115.6
	c86.8,50.2,93.9,104.8,135.8,135.2c3.4,2.5,6.9,4.8,10.4,6.8c74.6,44.7,159-3.2,182.5-72.5C1034.1,852.6,1025.5,821.9,1001.5,769.8z
	 M924.7,880.2c-13,0-23.7-12.8-25.6-29.4c-0.2-1.7-0.3-3.4-0.3-5.2c0-19.2,11.6-34.7,25.9-34.7c0.6,0,1.2,0,1.7,0.1
	c13.5,1.2,24.1,16.2,24.1,34.6C950.5,864.7,938.9,880.2,924.7,880.2z M994.6,783.1c-31.1-3.8-60.7-36.1-73.4-71.2
	c-14.7-40.5-70.1-122.8-107.4-169c-37.3-46.2-34-111.8,3.4-131.8c0.7-0.4,1.6-0.3,2.4-0.5c33.6,44.2,63.7,110.9,119.7,230.4
	c26,55.4,47,96.4,62.1,129c2.1,4.5,4,8.8,5.9,13C1003.1,783.6,998.8,783.6,994.6,783.1z"/>
<path class="st1" d="M709.5,278.9c30-17.5,60.4-36.2,68-43.9c15.7-15.7,40.5-33.9,26.9,7.6c-5.2,15.9-10.7,33.2-23.7,58.4"/>
<path class="st0" d="M638.7,253.3C623.3,264.9,607,280,594,302c-2.6,4.5-5.1,9.2-7.4,14.3c-143.4-0.1-235.7,71.9-319.8,156
	c-2.4,2.4-138.4,136.2-220,216.4c-6.3-20.9-11.3-42.3-14.9-64.2c-3.5-20.9-5.6-42.1-6.5-63.8c95.2-96.3,147.9-165.9,243.1-234.7
	C385.8,241.2,551.1,224.7,638.7,253.3z"/>
<path class="st0" d="M816.9,404.2c0,0.3,0,0.4,0,0.4c-30.2-33.5-80.1-57.8-128.5-72.1c0.9-2,1.8-4,2.7-5.9
	c2.8-6.5,5.3-12.7,7.5-18.8c3.4-9.5,6.1-18.6,8.1-27.2c0.9-0.5,1.9-1.1,2.8-1.6c9,0.9,18.9,2,29.7,3.3c17.5,2.2,31.1,9.2,41.6,18.9
	C816.9,334.2,817,398.4,816.9,404.2z"/>
<path class="st0" d="M709.5,278.9c-0.9,0.5-1.9,1.1-2.8,1.6c0.1-0.6,0.3-1.2,0.4-1.8C707.9,278.7,708.7,278.8,709.5,278.9z"/>
<path class="st0" d="M686.3,215.5c-5.8,11.9-25.7,21.4-47.6,37.8C623.3,264.9,607,280,594,302c-2.6,4.5-5.1,9.2-7.4,14.3
	c-4.2,9.1-7.8,19.3-10.6,30.7c-22.9,92.5,68.3,64.3,95,18.6c6.8-11.6,12.5-22.6,17.4-33.1c0.9-2,1.8-4,2.7-5.9
	c2.8-6.5,5.3-12.7,7.5-18.8c3.4-9.5,6.1-18.6,8.1-27.2c0.1-0.6,0.3-1.2,0.4-1.8c2.9-13.2,4.3-25.4,4.6-36.9
	C712.2,224.3,710.9,164.6,686.3,215.5z"/>
<path class="st0" d="M1007.3,782.1c-4.2,0.6-8.4,0.6-12.7,0.1c-31.1-3.9-60.7-36.3-73.4-71.4c-14.7-40.7-70.1-123.2-107.4-169.6
	c-37.3-46.4-34-112.2,3.4-132.3c0.7-0.4,1.6-0.3,2.4-0.5c33.6,44.3,63.7,111.3,119.7,231.2c26,55.6,47,96.8,62.1,129.5
	C1003.5,773.5,1005.4,777.9,1007.3,782.1z"/>
<path class="st2" d="M620.6,473.6c18.1-20.8,44.7-34,74.4-34c13.3,0,26,2.6,37.6,7.4"/>
<circle class="st0" cx="697.2" cy="531" r="64.4"/>
<circle class="st0" cx="697.2" cy="531" r="31.1"/>
</svg>
